<svg xmlns="http://www.w3.org/2000/svg" viewBox="0 0 280 64" fill="none">
  <defs>
    <linearGradient id="iconGrad" x1="0%" y1="0%" x2="100%" y2="100%">
      <stop offset="0%" stop-color="#4F46E5"/>
      <stop offset="50%" stop-color="#22D3EE"/>
      <stop offset="100%" stop-color="#8B5CF6"/>
    </linearGradient>
    <linearGradient id="iconShine" x1="0%" y1="0%" x2="100%" y2="100%">
      <stop offset="0%" stop-color="rgba(255,255,255,0.2)"/>
      <stop offset="100%" stop-color="rgba(255,255,255,0)"/>
    </linearGradient>
  </defs>
  <rect x="4" y="4" width="56" height="56" rx="14" fill="url(#iconGrad)"/>
  <rect x="4" y="4" width="56" height="56" rx="14" fill="url(#iconShine)"/>
  <path d="M20 18h24c1.1 0 2 .9 2 2v0c0 1.1-.9 2-2 2H26v6h12c1.1 0 2 .9 2 2v0c0 1.1-.9 2-2 2H26v6h18c1.1 0 2 .9 2 2v0c0 1.1-.9 2-2 2H20c-1.1 0-2-.9-2-2V20c0-1.1.9-2 2-2z" fill="white"/>
  <text x="76" y="44" font-family="Inter, system-ui, sans-serif" font-size="36" font-weight="800" fill="#1E3A5F">Edu</text>
  <text x="166" y="44" font-family="Inter, system-ui, sans-serif" font-size="36" font-weight="800" fill="#FF8A00">CI</text>
</svg>
